<svg xmlns="http://www.w3.org/2000/svg" width="16" height="20" viewBox="0 0 16 20">
    <g id="noun_Calculator_61747" transform="translate(-4 -2)">
        <path id="Tracé_1752" data-name="Tracé 1752" d="M18,2H6A2.006,2.006,0,0,0,4,4V20a2.006,2.006,0,0,0,2,2H18a2.006,2.006,0,0,0,2-2V4A2.006,2.006,0,0,0,18,2Zm0,6H6V4H18ZM9,12H7V10H9Zm4,0H11V10h2ZM9,16H7V14H9Zm4,0H11V14h2ZM9,20H7V18H9Zm4,0H11V18h2Zm4-8H15V10h2Zm0,4H15V14h2Zm0,4H15V18h2Z"/>
        <rect id="Rectangle_1686" data-name="Rectangle 1686" width="2" height="2" transform="translate(15 5)"/>
    </g>
</svg>