<svg xmlns="http://www.w3.org/2000/svg" width="24.5" height="15.26" viewBox="0 0 35.873 21.854">
    <g id="money" transform="translate(-31.824 -231.984)">
        <path id="Tracé_1657" data-name="Tracé 1657" d="M421.449,451.08c0,1.059-2.16,1.906-4.786,1.906s-4.786-.847-4.786-1.906v.974c0,1.059,2.16,1.906,4.786,1.906s4.786-.847,4.786-1.906Z" transform="translate(-353.752 -203.934)"/>
        <path id="Tracé_1658" data-name="Tracé 1658" d="M421.449,478.62c0,1.059-2.16,1.906-4.786,1.906s-4.786-.847-4.786-1.906v.974c0,1.059,2.16,1.906,4.786,1.906s4.786-.847,4.786-1.906Z" transform="translate(-353.752 -229.568)"/>
        <path id="Tracé_1659" data-name="Tracé 1659" d="M421.449,506.16c0,1.059-2.16,1.906-4.786,1.906s-4.786-.847-4.786-1.906v.974c0,1.059,2.16,1.906,4.786,1.906s4.786-.847,4.786-1.906Z" transform="translate(-353.752 -255.202)"/>
        <path id="Tracé_1660" data-name="Tracé 1660" d="M421.449,398.56h0c0-1.1-2.16-1.948-4.786-1.948s-4.786.847-4.786,1.906v.974c0,1.059,2.16,1.906,4.786,1.906s4.786-.847,4.786-1.906Z" transform="translate(-353.752 -153.235)"/>
        <path id="Tracé_1661" data-name="Tracé 1661" d="M270.284,506.16c0,1.059-2.16,1.906-4.786,1.906s-4.786-.847-4.786-1.906v.974c0,1.059,2.16,1.906,4.786,1.906s4.786-.847,4.786-1.906Z" transform="translate(-213.048 -255.202)"/>
        <path id="Tracé_1662" data-name="Tracé 1662" d="M270.284,453.641h0c0-1.1-2.16-1.948-4.786-1.948s-4.786.847-4.786,1.906v.974c0,1.059,2.16,1.906,4.786,1.906s4.786-.847,4.786-1.906Z" transform="translate(-213.048 -204.504)"/>
        <g id="Groupe_1758" data-name="Groupe 1758" transform="translate(31.824 231.984)">
            <path id="Tracé_1663" data-name="Tracé 1663" d="M60.582,231.984l-28.758,7.708,3.812,14.146,11.859-3.176h0a1.379,1.379,0,0,1-.169-.593v-.974a1.219,1.219,0,0,1,.381-.889,5.315,5.315,0,1,1,4.066-1.313c.212,0,.466-.042.678-.042,1.821,0,3.769.424,4.616,1.228l.678-.169v-.762a.429.429,0,0,1,.169-.3,1.378,1.378,0,0,1-.169-.593v-.974c0-1.44,2.626-2.245,5.125-2.245H63.5Z" transform="translate(-31.824 -231.984)"/>
        </g>
    </g>
</svg>